<?xml version="1.0" encoding="UTF-8"?>
<svg xmlns="http://www.w3.org/2000/svg" viewBox="0 0 264.22 267.98">
  <defs>
    <style>
      .cls-1 {
        stroke: #231f20;
      }

      .cls-1, .cls-2, .cls-3 {
        fill: #c2725b;
      }

      .cls-1, .cls-3 {
        stroke-miterlimit: 10;
      }

      .cls-3 {
        stroke: #333;
      }

      .cls-4 {
        fill: #f4e5e1;
      }
    </style>
  </defs>
  <g id="Layer_1" data-name="Layer 1">
    <path class="cls-4" d="M79.03,143.01c13.15-23.05,26.3-46.09,39.45-69.14"/>
    <path class="cls-4" d="M105.6,7.47c30.45-4.55,74.66-5.52,98.24,11.72,33.4,24.41,31.24,63.12,37.3,102.73,6.55,42.78,2.39,96.64-29.3,125.39-29.52,26.78-82.29,21.86-110.94,16.27-25.6-5-48.34-19.13-68.36-52.21-8.11-13.4-7.86-38.93-7.03-89.45,1.18-71.89,11.08-78.17,17.97-85.16,16.07-16.3,32.24-24.83,62.11-29.3Z"/>
  </g>
  <g id="Layer_2" data-name="Layer 2">
    <path class="cls-2" d="M130.77,4.94c10.69,2.7,1.34,32.65,2.4,64.25,1,29.55-8.89,46.97-18.21,59.57-20.2,27.33-85.81,26.57-89.63,4.47C9.31,40.48,71.12-10.14,130.77,4.94Z"/>
    <path class="cls-2" d="M149.54,4.63c-10.95,1.29-2.84,39.5-3.91,71.1-1,29.55,9.24,43.16,18.55,55.76,20.2,27.33,76.77,31.62,79.6,9.38C253.43,64.91,217.65-3.42,149.54,4.63Z"/>
    <path class="cls-3" d="M50.52,97.12c-3.64,5.08-26.68,28.26-40.04,20.31C-8.78,105.97,2.32,41.91,22.77,18.99,38.18,1.72,73.17-5.13,86.4,5.73c18.99,15.59-15.22,62.54-35.88,91.39Z"/>
    <path class="cls-1" d="M213.7,97.12c3.64,5.08,26.68,28.26,40.04,20.31,19.26-11.46,8.16-75.52-12.29-98.44-15.41-17.27-50.41-24.12-63.63-13.27-18.99,15.59,15.22,62.54,35.88,91.39Z"/>
  </g>
  <g id="Layer_3" data-name="Layer 3">
    <ellipse cx="86.4" cy="117.43" rx="15" ry="10" transform="translate(-36.77 195.43) rotate(-86)"/>
    <ellipse cx="184.51" cy="117.43" rx="10" ry="15" transform="translate(-7.74 13.16) rotate(-4)"/>
  </g>
  <g id="Layer_4" data-name="Layer 4">
    <path d="M124.74,162.74c3.3-7.61,25.9-9.83,29.3-.39,3.12,8.7-5.6,23.14-14.37,23.24-12.78.15-18-15.77-14.93-22.85Z"/>
  </g>
  <g id="Layer_5" data-name="Layer 5">
    <path d="M136.5,185.38c.28,3.25.33,6.52.15,9.78-.07,1.31,1.2,2.56,2.5,2.5,1.41-.06,2.43-1.1,2.5-2.5.17-3.26.12-6.53-.15-9.78-.11-1.3-1.07-2.56-2.5-2.5-1.26.06-2.62,1.1-2.5,2.5h0Z"/>
    <path d="M124.14,204.43c6.22-2.42,12.7-5.01,19.46-5.17,3.3-.08,6.36.61,9.52,1.49,3.37.94,6.75,1.88,10.12,2.82,3.1.86,4.43-3.96,1.33-4.82-3.52-.98-7.04-1.96-10.56-2.94s-6.85-1.63-10.41-1.55c-7.25.18-14.12,2.75-20.79,5.35-1.26.49-2.13,1.68-1.75,3.08.33,1.2,1.81,2.24,3.08,1.75h0Z"/>
  </g>
</svg>