<?xml version="1.0" encoding="UTF-8"?>
<svg xmlns="http://www.w3.org/2000/svg" viewBox="0 0 264.22 292.52">
  <defs>
    <style>
      .cls-1, .cls-2, .cls-3 {
        fill: #c2725b;
      }

      .cls-1, .cls-3, .cls-4 {
        stroke-miterlimit: 10;
      }

      .cls-1, .cls-4 {
        stroke: #231f20;
      }

      .cls-3 {
        stroke: #333;
      }

      .cls-5 {
        fill: #423b2b;
      }

      .cls-6 {
        fill: #f4e5e1;
      }

      .cls-4 {
        fill: #6d3a00;
      }
    </style>
  </defs>
  <g id="Layer_1" data-name="Layer 1">
    <path class="cls-6" d="M79.03,167.55c13.15-23.05,26.3-46.09,39.45-69.14"/>
    <path class="cls-6" d="M105.6,32c30.45-4.55,74.66-5.52,98.24,11.72,33.4,24.41,31.24,63.12,37.3,102.73,6.55,42.78,2.39,96.64-29.3,125.39-29.52,26.78-82.29,21.86-110.94,16.27-25.6-5-48.34-19.13-68.36-52.21-8.11-13.4-7.86-38.93-7.03-89.45,1.18-71.89,11.08-78.17,17.97-85.16,16.07-16.3,32.24-24.83,62.11-29.3Z"/>
  </g>
  <g id="Layer_2" data-name="Layer 2">
    <path class="cls-2" d="M130.77,29.48c10.69,2.7,1.34,32.65,2.4,64.25,1,29.55-8.89,46.97-18.21,59.57-20.2,27.33-85.81,26.57-89.63,4.47C9.31,65.01,71.12,14.4,130.77,29.48Z"/>
    <path class="cls-2" d="M149.54,29.16c-10.95,1.29-2.84,39.5-3.91,71.1-1,29.55,9.24,43.16,18.55,55.76,20.2,27.33,76.77,31.62,79.6,9.38,9.64-75.96-26.14-144.29-94.25-136.24Z"/>
    <path class="cls-3" d="M50.52,121.65c-3.64,5.08-26.68,28.26-40.04,20.31-19.26-11.46-8.16-75.52,12.29-98.44,15.41-17.27,50.41-24.12,63.63-13.27,18.99,15.59-15.22,62.54-35.88,91.39Z"/>
    <path class="cls-1" d="M213.7,121.65c3.64,5.08,26.68,28.26,40.04,20.31,19.26-11.46,8.16-75.52-12.29-98.44-15.41-17.27-50.41-24.12-63.63-13.27-18.99,15.59,15.22,62.54,35.88,91.39Z"/>
  </g>
  <g id="Layer_3" data-name="Layer 3">
    <ellipse cx="86.4" cy="141.97" rx="15" ry="10" transform="translate(-61.24 218.26) rotate(-86)"/>
    <ellipse cx="184.51" cy="141.97" rx="10" ry="15" transform="translate(-9.45 13.22) rotate(-4)"/>
  </g>
  <g id="Layer_4" data-name="Layer 4">
    <path d="M124.74,187.28c3.3-7.61,25.9-9.83,29.3-.39,3.12,8.7-5.6,23.14-14.37,23.24-12.78.15-18-15.77-14.93-22.85Z"/>
  </g>
  <g id="Layer_5" data-name="Layer 5">
    <path d="M136.5,209.92c.28,3.25.33,6.52.15,9.78-.07,1.31,1.2,2.56,2.5,2.5,1.41-.06,2.43-1.1,2.5-2.5.17-3.26.12-6.53-.15-9.78-.11-1.3-1.07-2.56-2.5-2.5-1.26.06-2.62,1.1-2.5,2.5h0Z"/>
    <path d="M124.14,228.97c6.22-2.42,12.7-5.01,19.46-5.17,3.3-.08,6.36.61,9.52,1.49,3.37.94,6.75,1.88,10.12,2.82,3.1.86,4.43-3.96,1.33-4.82-3.52-.98-7.04-1.96-10.56-2.94s-6.85-1.63-10.41-1.55c-7.25.18-14.12,2.75-20.79,5.35-1.26.49-2.13,1.68-1.75,3.08.33,1.2,1.81,2.24,3.08,1.75h0Z"/>
  </g>
  <g id="Layer_6" data-name="Layer 6">
    <path class="cls-4" d="M121.5,66.95c-44.53.97-50.31-16.44-52.62-23.56-2.69-8.27-5.1-19.83-.85-24.83,3.73-4.39,12.23-2.74,17.78-1.71,51.06,9.53,76.92,14.08,92.82,3.41,7.92-5.32,10.54-12.17,15.35-10.96,7.06,1.78,12.56,19.34,6.82,30.21-6.11,11.56-37.82,26.53-79.29,27.44Z"/>
    <path class="cls-4" d="M105.47,33.26c-1-10.58-1.66-20.97,4.03-27.63,3.54-4.15,9.37-5.55,15.2-3.92,5.84,1.63,3.31,6.01,8.19,6.24,4.95.23,6.12-5.74,12.66-7.03,6.84-1.35,13.21.96,13.81,1.79,6.68,9.14,3.27,19.87,2.44,30.56"/>
    <path class="cls-5" d="M105.13,31.81c2.73,2.38,6.28,3.58,9.7,4.58,4.64,1.36,9.41,2.17,14.24,2.47s9.48.13,14.2-.25c4.05-.32,8.28-.46,12.11-1.94s7.66-3.56,10.19-6.89c.82-1.08.17-2.8-.9-3.42-1.28-.75-2.6-.18-3.42.9.11-.15-.35.37-.44.46-.22.22-.44.43-.68.63-.57.5-1.19.92-1.83,1.32-1.3.82-2.67,1.55-4.09,2.11-3.43,1.37-6.44,1.45-10.23,1.77-8.54.72-17.26.82-25.61-1.37-2.04-.53-4.07-1.12-6.03-1.89-.73-.29-1.45-.62-2.14-1-.3-.17-.59-.34-.87-.53-.15-.1-.31-.2-.45-.31-.38-.29.4.34-.2-.18-1.02-.89-2.53-1-3.54,0-.91.91-1.02,2.64,0,3.54h0Z"/>
  </g>
</svg>